<?xml version="1.0" encoding="UTF-8"?>
<svg width="800px" height="127px" viewBox="0 0 800 127" version="1.1" xmlns="http://www.w3.org/2000/svg" xmlns:xlink="http://www.w3.org/1999/xlink">
    <title>Group 32</title>
    <g id="final" stroke="none" stroke-width="1" fill="none" fill-rule="evenodd">
        <g id="Group-32" transform="translate(0.528000, 3.902351)">
            <g id="TELECOM" transform="translate(0.000000, 28.905649)" fill="#FFFFFF" fill-rule="nonzero">
                <polygon id="Path" points="32.472 93.192 32.472 9.24 0 9.24 0 0.792 74.712 0.792 74.712 9.24 42.24 9.24 42.24 93.192"></polygon>
                <path d="M94.428571,42.108 L143.268571,42.108 L143.268571,50.424 L94.428571,50.424 L94.428571,42.108 Z M95.484571,84.744 L151.056571,84.744 L151.056571,93.192 L85.716571,93.192 L85.716571,0.792 L149.076571,0.792 L149.076571,9.24 L95.484571,9.24 L95.484571,84.744 Z" id="Shape"></path>
                <polygon id="Path" points="169.453142 93.192 169.453142 0.792 179.221142 0.792 179.221142 84.744 230.965142 84.744 230.965142 93.192"></polygon>
                <path d="M251.341713,42.108 L300.181713,42.108 L300.181713,50.424 L251.341713,50.424 L251.341713,42.108 Z M252.397713,84.744 L307.969713,84.744 L307.969713,93.192 L242.629713,93.192 L242.629713,0.792 L305.989713,0.792 L305.989713,9.24 L252.397713,9.24 L252.397713,84.744 Z" id="Shape"></path>
                <path d="M366.230284,93.984 C359.278284,93.984 352.854284,92.818 346.958284,90.486 C341.062284,88.154 335.958284,84.876 331.646284,80.652 C327.334284,76.428 323.968284,71.456 321.548284,65.736 C319.128284,60.016 317.918284,53.768 317.918284,46.992 C317.918284,40.216 319.128284,33.968 321.548284,28.248 C323.968284,22.528 327.356284,17.556 331.712284,13.332 C336.068284,9.108 341.194284,5.83 347.090284,3.498 C352.986284,1.166 359.410284,0 366.362284,0 C373.050284,0 379.342284,1.122 385.238284,3.366 C391.134284,5.61 396.106284,8.976 400.154284,13.464 L393.950284,19.668 C390.166284,15.796 385.986284,13.002 381.410284,11.286 C376.834284,9.57 371.906284,8.712 366.626284,8.712 C361.082284,8.712 355.934284,9.658 351.182284,11.55 C346.430284,13.442 342.294284,16.126 338.774284,19.602 C335.254284,23.078 332.504284,27.126 330.524284,31.746 C328.544284,36.366 327.554284,41.448 327.554284,46.992 C327.554284,52.536 328.544284,57.618 330.524284,62.238 C332.504284,66.858 335.254284,70.906 338.774284,74.382 C342.294284,77.858 346.430284,80.542 351.182284,82.434 C355.934284,84.326 361.082284,85.272 366.626284,85.272 C371.906284,85.272 376.834284,84.392 381.410284,82.632 C385.986284,80.872 390.166284,78.056 393.950284,74.184 L400.154284,80.388 C396.106284,84.876 391.134284,88.264 385.238284,90.552 C379.342284,92.84 373.006284,93.984 366.230284,93.984 Z" id="Path"></path>
                <path d="M454.850855,93.984 C447.898855,93.984 441.452855,92.818 435.512855,90.486 C429.572855,88.154 424.424855,84.854 420.068855,80.586 C415.712855,76.318 412.324855,71.346 409.904855,65.67 C407.484855,59.994 406.274855,53.768 406.274855,46.992 C406.274855,40.216 407.484855,33.99 409.904855,28.314 C412.324855,22.638 415.712855,17.666 420.068855,13.398 C424.424855,9.13 429.550855,5.83 435.446855,3.498 C441.342855,1.166 447.810855,0 454.850855,0 C461.802855,0 468.226855,1.166 474.122855,3.498 C480.018855,5.83 485.144855,9.108 489.500855,13.332 C493.856855,17.556 497.244855,22.528 499.664855,28.248 C502.084855,33.968 503.294855,40.216 503.294855,46.992 C503.294855,53.768 502.084855,60.016 499.664855,65.736 C497.244855,71.456 493.856855,76.428 489.500855,80.652 C485.144855,84.876 480.018855,88.154 474.122855,90.486 C468.226855,92.818 461.802855,93.984 454.850855,93.984 Z M454.850855,85.272 C460.394855,85.272 465.520855,84.326 470.228855,82.434 C474.936855,80.542 479.028855,77.858 482.504855,74.382 C485.980855,70.906 488.686855,66.858 490.622855,62.238 C492.558855,57.618 493.526855,52.536 493.526855,46.992 C493.526855,41.448 492.558855,36.366 490.622855,31.746 C488.686855,27.126 485.980855,23.078 482.504855,19.602 C479.028855,16.126 474.936855,13.442 470.228855,11.55 C465.520855,9.658 460.394855,8.712 454.850855,8.712 C449.306855,8.712 444.158855,9.658 439.406855,11.55 C434.654855,13.442 430.540855,16.126 427.064855,19.602 C423.588855,23.078 420.860855,27.126 418.880855,31.746 C416.900855,36.366 415.910855,41.448 415.910855,46.992 C415.910855,52.448 416.900855,57.508 418.880855,62.172 C420.860855,66.836 423.588855,70.906 427.064855,74.382 C430.540855,77.858 434.654855,80.542 439.406855,82.434 C444.158855,84.326 449.306855,85.272 454.850855,85.272 Z" id="Shape"></path>
                <polygon id="Path" points="520.635426 93.192 520.635426 0.792 528.687426 0.792 570.927426 72.864 566.703426 72.864 608.547426 0.792 616.599426 0.792 616.599426 93.192 607.227426 93.192 607.227426 15.444 609.471426 15.444 570.927426 81.444 566.307426 81.444 527.499426 15.444 530.007426 15.444 530.007426 93.192"></polygon>
            </g>
            <g id="XD" transform="translate(637.864000, 33.897649)" fill="#FFFFFF" fill-rule="nonzero">
                <polygon id="Path" points="0 53.2 23.712 20.064 23.636 32.604 0.684 0 20.824 0 34.2 19.76 25.612 19.836 38.684 0 57.988 0 35.036 31.92 35.036 19.456 59.128 53.2 38.608 53.2 25.232 32.528 33.516 32.452 20.444 53.2"></polygon>
                <path d="M67.332,53.2 L67.332,0 L93.552,0 C99.48,0 104.698667,1.07666667 109.208,3.23 C113.717333,5.38333333 117.238667,8.436 119.772,12.388 C122.305333,16.34 123.572,21.052 123.572,26.524 C123.572,32.0466667 122.305333,36.7966667 119.772,40.774 C117.238667,44.7513333 113.717333,47.8166667 109.208,49.97 C104.698667,52.1233333 99.48,53.2 93.552,53.2 L67.332,53.2 Z M85.268,39.216 L92.792,39.216 C95.3253333,39.216 97.542,38.7346667 99.442,37.772 C101.342,36.8093333 102.824,35.378 103.888,33.478 C104.952,31.578 105.484,29.26 105.484,26.524 C105.484,23.8386667 104.952,21.5586667 103.888,19.684 C102.824,17.8093333 101.342,16.3906667 99.442,15.428 C97.542,14.4653333 95.3253333,13.984 92.792,13.984 L85.268,13.984 L85.268,39.216 Z" id="Shape"></path>
            </g>
            <path d="M731.84252,24.2707745 C743.875299,24.2707745 753.672939,28.0733879 761.23544,35.6786147 C768.797941,43.2838415 772.599392,52.3909699 772.639792,63" id="Path-10" stroke="#FFFFFF" stroke-width="7"></path>
            <path d="M731.575532,13 C746.912452,13 759.400475,17.8110452 769.039602,27.4331357 C778.678728,37.0552262 783.524038,48.5775143 783.575532,62" id="Path-10" stroke="#FFFFFF" stroke-width="7"></path>
            <path d="M731.779386,0 C750.655596,0 766.025471,6.08744501 777.889011,18.262335 C789.752551,30.437225 795.716009,45.0164467 795.779386,62" id="Path-10" stroke="#FFFFFF" stroke-width="7"></path>
        </g>
    </g>
</svg>